<svg width="24" height="24" viewBox="0 0 24 24" fill="none" xmlns="http://www.w3.org/2000/svg">
<path fill-rule="evenodd" clip-rule="evenodd" d="M20.1099 7.79995L20.5979 9.26392C21.857 9.5378 22.7999 10.6588 22.7999 11.9999V17.9983L22.8 18V21C22.8 21.4419 22.4418 21.8 22 21.8H18C17.5581 21.8 17.2 21.4419 17.2 21V18.7999H6.79995V21C6.79995 21.4419 6.44178 21.8 5.99995 21.8H1.99995C1.55812 21.8 1.19995 21.4419 1.19995 21V11.9999C1.19995 10.6588 2.14293 9.5378 3.40205 9.26392L3.89004 7.79995H2.49995C2.05812 7.79995 1.69995 7.44177 1.69995 6.99995C1.69995 6.55812 2.05812 6.19995 2.49995 6.19995H4.42338L4.55723 5.79838C5.07447 4.24668 6.52659 3.20004 8.16223 3.20004H15.8377C17.4733 3.20004 18.9254 4.24668 19.4427 5.79838L19.5765 6.19995H21.5C21.9418 6.19995 22.3 6.55812 22.3 6.99995C22.3 7.44177 21.9418 7.79995 21.5 7.79995H20.1099ZM18.89 9.19995H5.10992L5.75346 7.26934C5.75731 7.25858 5.76093 7.24771 5.76432 7.23675L6.07513 6.30434C6.37458 5.40599 7.21528 4.80004 8.16223 4.80004H15.8377C16.7846 4.80004 17.6253 5.40599 17.9248 6.30434L18.2356 7.23675C18.239 7.24772 18.2426 7.25858 18.2464 7.26934L18.89 9.19995ZM18.5 13.1999H21.2V11.9999C21.2 11.3405 20.6679 10.8052 20.0097 10.8L20 10.8H3.99995L3.99022 10.8C3.33196 10.8052 2.79995 11.3405 2.79995 11.9999V13.2H5.49995C6.21792 13.2 6.79995 13.7821 6.79995 14.5C6.79995 15.218 6.21792 15.8 5.49995 15.8H2.79995V17.1999H21.2V15.7999H18.4999C17.782 15.7999 17.1999 15.2179 17.1999 14.4999C17.1999 13.782 17.782 13.1999 18.5 13.1999ZM2.79995 20.2V18.8H5.19995V20.2H2.79995ZM18.8 18.8V20.2H21.2V18.8H18.8Z" fill="#EF4136"/>
</svg>
