<svg width="48" height="49" viewBox="0 0 48 49" fill="none" xmlns="http://www.w3.org/2000/svg">
<rect y="0.5" width="48" height="48" rx="24" fill="#EF4136"/>
<path fill-rule="evenodd" clip-rule="evenodd" d="M17.4091 17.3367C15.751 18.5803 14.8002 20.2372 14.8002 22C14.8002 23.6384 15.6216 25.1854 17.0688 26.394L28.9366 16.352C27.5177 15.69 25.8272 15.3 24.0002 15.3C21.3951 15.3 19.0675 16.0929 17.4091 17.3367ZM30.4079 17.203L18.4398 27.3298C19.975 28.1833 21.8972 28.7 24.0002 28.7C26.6053 28.7 28.9329 27.9071 30.5913 26.6633C32.2494 25.4197 33.2002 23.7628 33.2002 22C33.2002 20.2372 32.2494 18.5803 30.5913 17.3367C30.531 17.2915 30.4699 17.2469 30.4079 17.203ZM16.4491 16.0567C18.4101 14.586 21.0824 13.7 24.0002 13.7C26.918 13.7 29.5903 14.586 31.5513 16.0567C33.5124 17.5276 34.8002 19.6207 34.8002 22C34.8002 22.1681 34.7938 22.3348 34.7811 22.5H34.8002L34.8002 28.5C34.8002 32.3924 30.6842 35.8 24.0002 35.8C20.5923 35.8 17.9175 34.8006 16.0772 33.3955C14.2616 32.0092 13.2002 30.1722 13.2002 28.5V22.5H13.2193C13.2066 22.3348 13.2002 22.1681 13.2002 22C13.2002 19.6207 14.4879 17.5276 16.4491 16.0567ZM33.2002 28.5V26.3596C32.7321 26.9434 32.1758 27.4749 31.5513 27.9433C29.5903 29.414 26.918 30.3 24.0002 30.3C21.0824 30.3 18.4101 29.414 16.4491 27.9433C15.8246 27.4749 15.2683 26.9434 14.8002 26.3596L14.8002 28.5C14.8002 29.5201 15.4888 30.9331 17.0482 32.1238C18.5829 33.2956 20.9081 34.2 24.0002 34.2C30.3162 34.2 33.2002 31.0692 33.2002 28.5Z" fill="#FEE734"/>
</svg>
