<svg width="69" height="19" viewBox="0 0 69 19" fill="none" xmlns="http://www.w3.org/2000/svg">
<path d="M0 18.5V0.5H4.32735V18.5H0Z" fill="#191B1F"/>
<path d="M17.8972 4.8431V18.5H13.5699V4.8431H5.57803V0.5H25.8766V4.8431H17.8972Z" fill="#191B1F"/>
<path d="M32.6803 0.5H41.9103C43.4278 0.516736 44.7285 1.06067 45.8124 2.1318C46.8963 3.21967 47.4383 4.53766 47.4383 6.08577V18.5H43.1109V6.08577C43.1109 5.74268 42.99 5.44979 42.7482 5.20711C42.5064 4.96444 42.2146 4.8431 41.8728 4.8431H39.4464V18.5H35.1191V4.8431H32.7053C32.3634 4.8431 32.0716 4.96444 31.8298 5.20711C31.588 5.44979 31.4671 5.74268 31.4671 6.08577V18.5H27.1397V6.08577C27.1397 4.54603 27.6859 3.22803 28.7781 2.1318C29.8454 1.06067 31.1461 0.516736 32.6803 0.5Z" fill="#191B1F"/>
<path d="M54.267 0.5H69V4.8431H54.267C53.9251 4.8431 53.6333 4.96444 53.3915 5.20711C53.1497 5.44979 53.0288 5.74268 53.0288 6.08577C53.0288 6.42887 53.1497 6.72176 53.3915 6.96444C53.6333 7.20711 53.9251 7.32845 54.267 7.32845H63.4345C64.9603 7.32845 66.2693 7.87657 67.3616 8.9728C68.4539 10.069 69 11.3828 69 12.9142C69 14.454 68.4539 15.772 67.3616 16.8682C66.2777 17.9561 64.9686 18.5 63.4345 18.5H48.7015V14.1569H63.4345C63.7763 14.1569 64.0682 14.0356 64.31 13.7929C64.5518 13.5502 64.6726 13.2573 64.6726 12.9142C64.6726 12.5711 64.5518 12.2782 64.31 12.0356C64.0682 11.7929 63.7763 11.6715 63.4345 11.6715H54.192C52.6911 11.6548 51.4071 11.1067 50.3399 10.0272C49.2476 8.93096 48.7015 7.61716 48.7015 6.08577C48.7015 4.54603 49.2434 3.23222 50.3274 2.14435C51.4196 1.04812 52.7328 0.5 54.267 0.5Z" fill="#191B1F"/>
</svg>
