<svg width="40" height="41" viewBox="0 0 40 41" fill="none" xmlns="http://www.w3.org/2000/svg">
<rect y="0.5" width="40" height="40" rx="20" fill="white"/>
<path fill-rule="evenodd" clip-rule="evenodd" d="M15.0502 11.5503C16.363 10.2375 18.1434 9.5 20 9.5C21.8565 9.5 23.6369 10.2375 24.9497 11.5503C26.2625 12.863 27 14.6435 27 16.5C27 19.8527 27.717 21.9346 28.3779 23.1461C28.7096 23.7544 29.0327 24.1535 29.2572 24.3904C29.3696 24.5091 29.458 24.5878 29.5112 24.6322C29.5379 24.6544 29.5557 24.668 29.5634 24.6737C29.5646 24.6746 29.5656 24.6753 29.5663 24.6758C29.9248 24.9221 30.0834 25.3725 29.957 25.7898C29.8293 26.2115 29.4406 26.5 29 26.5H11C10.5593 26.5 10.1706 26.2115 10.0429 25.7898C9.91652 25.3725 10.0752 24.9221 10.4336 24.6758C10.4343 24.6753 10.4353 24.6746 10.4365 24.6737C10.4442 24.668 10.4621 24.6544 10.4887 24.6322C10.5419 24.5878 10.6303 24.5091 10.7428 24.3904C10.9672 24.1535 11.2903 23.7544 11.6221 23.1461C12.2829 21.9346 13 19.8527 13 16.5C13 14.6435 13.7375 12.863 15.0502 11.5503ZM10.4438 24.669C10.4438 24.6689 10.4439 24.6688 10.444 24.6688C10.444 24.6688 10.444 24.6688 10.444 24.6688L10.4438 24.669ZM13.1493 24.5H26.8506C26.7745 24.3753 26.6982 24.2434 26.6221 24.1039C25.7829 22.5654 25 20.1473 25 16.5C25 15.1739 24.4732 13.9021 23.5355 12.9645C22.5978 12.0268 21.326 11.5 20 11.5C18.6739 11.5 17.4021 12.0268 16.4644 12.9645C15.5267 13.9021 15 15.1739 15 16.5C15 20.1473 14.217 22.5654 13.3779 24.1039C13.3018 24.2434 13.2254 24.3753 13.1493 24.5ZM17.7689 28.6346C18.2469 28.3579 18.8587 28.521 19.1354 28.999C19.2231 29.1506 19.3492 29.2764 19.501 29.3639C19.6527 29.4514 19.8248 29.4974 20 29.4974C20.1751 29.4974 20.3472 29.4514 20.4989 29.3639C20.6507 29.2764 20.7768 29.1506 20.8645 28.999C21.1412 28.521 21.753 28.3579 22.231 28.6346C22.7089 28.9113 22.8721 29.5231 22.5954 30.001C22.3319 30.4561 21.9535 30.8339 21.4979 31.0965C21.0424 31.3592 20.5258 31.4974 20 31.4974C19.4741 31.4974 18.9575 31.3592 18.502 31.0965C18.0465 30.8339 17.668 30.4561 17.4045 30.001C17.1278 29.5231 17.291 28.9113 17.7689 28.6346Z" fill="#1D1E22"/>
</svg>
