<svg width="24" height="24" viewBox="0 0 24 24" fill="none" xmlns="http://www.w3.org/2000/svg">
<path fill-rule="evenodd" clip-rule="evenodd" d="M12.8 4.00001C12.8 3.55818 12.4418 3.20001 12 3.20001C11.5581 3.20001 11.2 3.55818 11.2 4.00001V11.2H3.99995C3.55812 11.2 3.19995 11.5582 3.19995 12C3.19995 12.4418 3.55812 12.8 3.99995 12.8H11.2V20C11.2 20.4418 11.5581 20.8 12 20.8C12.4418 20.8 12.8 20.4418 12.8 20V12.8H20C20.4418 12.8 20.8 12.4418 20.8 12C20.8 11.5582 20.4418 11.2 20 11.2H12.8V4.00001Z" fill="#EF4136"/>
</svg>
