<svg width="24" height="24" viewBox="0 0 24 24" fill="none" xmlns="http://www.w3.org/2000/svg">
<path fill-rule="evenodd" clip-rule="evenodd" d="M8 3.6H5C4.2268 3.6 3.6 4.2268 3.6 5V8C3.6 8.7732 4.2268 9.4 5 9.4H8C8.7732 9.4 9.4 8.7732 9.4 8V5C9.4 4.2268 8.7732 3.6 8 3.6ZM5 2C3.34315 2 2 3.34315 2 5V8C2 9.65685 3.34315 11 5 11H8C9.65685 11 11 9.65685 11 8V5C11 3.34315 9.65685 2 8 2H5ZM5 6C5 5.44772 5.44772 5 6 5H7C7.55228 5 8 5.44772 8 6V7C8 7.55228 7.55228 8 7 8H6C5.44772 8 5 7.55228 5 7V6ZM16 3.6H19C19.7732 3.6 20.4 4.2268 20.4 5V8C20.4 8.7732 19.7732 9.4 19 9.4H16C15.2268 9.4 14.6 8.7732 14.6 8V5C14.6 4.2268 15.2268 3.6 16 3.6ZM13 5C13 3.34315 14.3431 2 16 2H19C20.6569 2 22 3.34315 22 5V8C22 9.65685 20.6569 11 19 11H16C14.3431 11 13 9.65685 13 8V5ZM16 6C16 5.44772 16.4477 5 17 5H18C18.5523 5 19 5.44772 19 6V7C19 7.55228 18.5523 8 18 8H17C16.4477 8 16 7.55228 16 7V6ZM5 14.6H8C8.7732 14.6 9.4 15.2268 9.4 16V19C9.4 19.7732 8.7732 20.4 8 20.4H5C4.2268 20.4 3.6 19.7732 3.6 19V16C3.6 15.2268 4.2268 14.6 5 14.6ZM2 16C2 14.3431 3.34315 13 5 13H8C9.65685 13 11 14.3431 11 16V19C11 20.6569 9.65685 22 8 22H5C3.34315 22 2 20.6569 2 19V16ZM5 17C5 16.4477 5.44772 16 6 16H7C7.55228 16 8 16.4477 8 17V18C8 18.5523 7.55228 19 7 19H6C5.44772 19 5 18.5523 5 18V17ZM13.5 13C13.2239 13 13 13.2239 13 13.5V14.5C13 14.7761 13.2239 15 13.5 15H15V15.5V16.5C15 16.7761 15.2239 17 15.5 17H17.5C17.7761 17 18 16.7761 18 16.5V15.5C18 15.2239 17.7761 15 17.5 15H16V14.5V13.5C16 13.2239 15.7761 13 15.5 13H13.5ZM18.5 20C18.2239 20 18 20.2239 18 20.5V21.5C18 21.7761 18.2239 22 18.5 22H20.5H21.5C21.7761 22 22 21.7761 22 21.5V20.5V19.5C22 19.2239 21.7761 19 21.5 19H20.5C20.2239 19 20 19.2239 20 19.5V20H18.5ZM15 20H17.5C17.7761 20 18 19.7761 18 19.5V18.5C18 18.2239 17.7761 18 17.5 18H14.5H13.5C13.2239 18 13 18.2239 13 18.5V21.5C13 21.7761 13.2239 22 13.5 22H14.5C14.7761 22 15 21.7761 15 21.5V20ZM20.5 15C20.2239 15 20 15.2239 20 15.5V17.5C20 17.7761 20.2239 18 20.5 18H21.5C21.7761 18 22 17.7761 22 17.5V15.5C22 15.2239 21.7761 15 21.5 15H20.5ZM18 13.5C18 13.2239 18.2239 13 18.5 13H19.5C19.7761 13 20 13.2239 20 13.5V14.5C20 14.7761 19.7761 15 19.5 15H18.5C18.2239 15 18 14.7761 18 14.5V13.5Z" fill="#737477"/>
</svg>
