<svg width="19" height="20" viewBox="0 0 19 20" fill="none" xmlns="http://www.w3.org/2000/svg">
<path fill-rule="evenodd" clip-rule="evenodd" d="M17.5107 1.65332C17.4767 1.21281 17.0919 0.883332 16.6514 0.917408C16.2109 0.951484 15.8814 1.33621 15.9155 1.77672L16.1452 4.74614C14.9808 3.45711 13.4622 2.52638 11.7678 2.07824C9.71919 1.5364 7.54506 1.73481 5.62835 2.63853C3.71164 3.54225 2.17527 5.09331 1.28985 7.01854C0.404425 8.94378 0.226729 11.1197 0.788056 13.1631C1.34938 15.2065 2.61373 16.9862 4.35842 18.189C6.10311 19.3917 8.21624 19.9402 10.3256 19.738C12.4351 19.5357 14.4054 18.5956 15.8898 17.0832C17.3741 15.5708 18.2772 13.5832 18.44 11.4704C18.4739 11.0299 18.1443 10.6453 17.7038 10.6113C17.2633 10.5774 16.8786 10.907 16.8447 11.3475C16.7109 13.0847 15.9683 14.719 14.7479 15.9625C13.5274 17.206 11.9073 17.9789 10.1729 18.1453C8.43852 18.3116 6.70106 17.8606 5.26653 16.8717C3.83201 15.8827 2.79244 14.4194 2.3309 12.7393C1.86937 11.0591 2.01547 9.27005 2.74349 7.68708C3.4715 6.10411 4.73473 4.82879 6.3107 4.08573C7.88666 3.34267 9.67428 3.17953 11.3587 3.62505C12.8369 4.01602 14.1525 4.85374 15.13 6.01612L12.1958 6.02535C11.754 6.02674 11.397 6.38603 11.3984 6.82786C11.3997 7.26969 11.759 7.62673 12.2009 7.62534L17.1098 7.60989C17.3322 7.60919 17.5443 7.5159 17.6952 7.35241C17.846 7.18892 17.922 6.96999 17.9049 6.7482L17.5107 1.65332Z" fill="#EF4136"/>
</svg>
