<svg width="24" height="24" viewBox="0 0 24 24" fill="none" xmlns="http://www.w3.org/2000/svg">
<path fill-rule="evenodd" clip-rule="evenodd" d="M12 2.20001C8.92126 2.20001 6.20001 4.07046 6.20001 7.20418C6.20001 9.24451 6.67752 11.1672 7.50865 12.6766C6.19129 13.1993 4.98804 13.9466 4.02724 14.7875C2.58308 16.0514 2.20001 17.9549 2.20001 19.6206V19.8935C2.20001 20.6672 2.69821 21.3737 3.46418 21.6014C10.5317 23.7028 17.2083 22.6044 20.5516 21.6022C21.3177 21.3725 21.8 20.6653 21.8 19.9047V19.6357C21.8 17.9651 21.4184 16.0324 19.9327 14.7832C18.8085 13.8379 17.4956 13.1441 16.4652 12.7237C17.3125 11.2073 17.8 9.26582 17.8 7.20418C17.8 4.07046 15.0788 2.20001 12 2.20001ZM15.5159 14.0712C14.5871 15.1141 13.387 15.8 12 15.8C10.5957 15.8 9.38294 15.0968 8.44943 14.0319C7.16928 14.4866 5.9914 15.1947 5.08097 15.9915C4.15188 16.8046 3.80001 18.1325 3.80001 19.6206V19.8935C3.80001 19.9848 3.85709 20.049 3.92018 20.0678C10.6002 22.0539 16.9442 21.0132 20.0922 20.0695C20.1442 20.0539 20.2 19.9981 20.2 19.9047V19.6357C20.2 18.1334 19.8457 16.8005 18.903 16.0078C17.7818 15.065 16.4244 14.4041 15.5159 14.0712ZM7.80001 7.20418C7.80001 5.24601 9.48157 3.80001 12 3.80001C14.5185 3.80001 16.2 5.24601 16.2 7.20418C16.2 9.19267 15.6848 10.9883 14.8791 12.2618C14.0684 13.5432 13.0379 14.2 12 14.2C10.9621 14.2 9.93163 13.5432 9.12094 12.2618C8.31526 10.9884 7.80001 9.19267 7.80001 7.20418Z" fill="#EF4136"/>
</svg>
