<svg width="24" height="24" viewBox="0 0 24 24" fill="none" xmlns="http://www.w3.org/2000/svg">
<path fill-rule="evenodd" clip-rule="evenodd" d="M12.7802 4.55952C12.3144 3.73604 11.1232 3.75041 10.6774 4.58489L3.2777 18.4345C2.85061 19.2339 3.42981 20.2 4.3361 20.2H19.5707C20.4898 20.2 21.0677 19.2091 20.6151 18.4091L12.7802 4.55952ZM9.26615 3.8309C10.3065 1.88378 13.0858 1.85025 14.1728 3.77171L22.0077 17.6213C23.0637 19.4879 21.7152 21.8 19.5707 21.8H4.3361C2.22141 21.8 0.869958 19.5457 1.86649 17.6805L9.26615 3.8309ZM12 8.25001C12.4142 8.25001 12.75 8.58579 12.75 9.00001V14.5C12.75 14.9142 12.4142 15.25 12 15.25C11.5858 15.25 11.25 14.9142 11.25 14.5V9.00001C11.25 8.58579 11.5858 8.25001 12 8.25001ZM12 18C12.5523 18 13 17.5523 13 17C13 16.4477 12.5523 16 12 16C11.4477 16 11 16.4477 11 17C11 17.5523 11.4477 18 12 18Z" fill="#FEE734"/>
</svg>
